<?xml version="1.0" encoding="utf-8"?>
<!-- Generator: Adobe Illustrator 24.2.3, SVG Export Plug-In . SVG Version: 6.00 Build 0)  -->
<svg version="1.1" id="Layer_1" xmlns="http://www.w3.org/2000/svg" xmlns:xlink="http://www.w3.org/1999/xlink" x="0px" y="0px"
	 viewBox="0 0 101.5 148.3" style="enable-background:new 0 0 101.5 148.3;" xml:space="preserve">
<style type="text/css">
	.st0{fill:#0A97D9;}
	.st1{fill:#FFFFFF;}
</style>
<g>
	<rect x="3.3" y="24" class="st0" width="94.8" height="94.8"/>
</g>
<g>
	<g>
		<path class="st1" d="M61.8,44.1c0,0-12.7-5-14.5-5.6s-7.5-6.9-9.1-7.5l2.1,6.4c0,0-0.2,0.6-0.5,0.8s-20,4.7-20,4.7s-8.8-6-9.3-6.3
			c0,0-0.5,0-0.2,0.4s3.8,6.1,3.9,7s-1,4.6-1.5,5.5c0,0-0.2,0.2,0.3,0.1s6.6-3.9,6.6-3.9s4.2,1.4,6.4,1.8c-0.4,0.8-0.8,1.6-1.4,2.4
			c1.6-0.4,3.1-1,4.4-1.9c0,0,10.5,1.5,13.8,1.8c0,0-1.2,3.8-1.6,4.8c2.3-1.1,4.4-2.6,6.2-4.4c0,0,12.1-2.6,14.6-5
			c0.2-0.3,0.2-0.7-0.1-1C61.9,44.2,61.9,44.1,61.8,44.1z M52,44.1c-0.7,0-1.2-0.6-1.2-1.2c0-0.7,0.6-1.2,1.2-1.2
			c0.7,0,1.2,0.6,1.2,1.2C53.2,43.6,52.7,44.1,52,44.1L52,44.1L52,44.1z"/>
	</g>
	<g>
		<path class="st1" d="M85.4,57.1L85.4,57.1c-0.6-0.7-3.7-3.5-10.5-4c-4.5-0.3-9,0.5-13.1,2.2c-1.6-0.7-3.3-1.3-5-1.6
			c0,0-0.3-0.1-0.4,0.1s0,0.2,0.2,0.4c0.9,0.7,1.4,1.7,1.6,2.8c-0.1,1-0.6,1.9-1.4,2.5l-0.2,0.1v0.1c0,0.1,0.1,0.2,0.2,0.2h0.1H57
			c1.7-0.1,3.4-0.7,4.9-1.6c0,0,8.3,2.7,13.5,2.7c4.9,0,8.7-2,10-3.4l0.1-0.1l0.1-0.1C85.6,57.1,85.5,57.1,85.4,57.1z M81,57.5
			c-0.6,0-1-0.4-1-1s0.4-1,1-1s1,0.4,1,1S81.6,57.5,81,57.5z"/>
	</g>
	<g>
		<path class="st1" d="M83.1,86.4c-0.6-1-0.9-2.1-1-3.2c0.1-1.1,0.4-2.3,1-3.2v-0.1c0,0,0-0.1-0.1-0.1l0,0c-1.5,0.2-2.7,1.2-3.4,2.5
			c0,0-3-2.5-5.7-2.5c-3.2,0-5.4,2.9-5.8,3.4l0,0l0,0l0,0l0,0c0.3,0.5,2.6,3.4,5.8,3.4c2.8,0,5.7-2.5,5.7-2.5
			c0.6,1.4,1.9,2.3,3.4,2.6l0,0C83,86.6,83.1,86.6,83.1,86.4L83.1,86.4L83.1,86.4z M72.1,83.6c-0.5,0-0.9-0.4-0.9-0.9
			s0.4-0.9,0.9-0.9s0.9,0.4,0.9,0.9l0,0C73,83.1,72.7,83.5,72.1,83.6L72.1,83.6z"/>
	</g>
	<g>
		<path class="st1" d="M63.8,76.6L63.8,76.6c-0.3-0.4-2.4-3-5.2-3c-2.5,0-5.2,2.3-5.2,2.3c-0.6-1.2-1.7-2-3.1-2.2l0,0
			c0,0-0.1,0-0.1,0.1v0.1c0.6,0.9,0.9,1.9,0.9,2.9c-0.1,1-0.4,2.1-0.9,2.9l0,0l0,0c0,0,0,0.1,0.1,0.1l0,0l0,0
			c1.3-0.2,2.5-1.1,3.1-2.3c0,0,2.7,2.3,5.2,2.3c2.9,0,4.9-2.6,5.2-3.1l0,0l0,0V76.6z M60.1,77c-0.5,0-0.9-0.4-0.9-0.8
			c0-0.5,0.4-0.9,0.8-0.9s0.9,0.4,0.9,0.8l0,0C60.9,76.6,60.6,77,60.1,77L60.1,77z"/>
	</g>
	<g>
		<path class="st1" d="M70.4,74.3c0-0.5-0.4-0.9-0.9-0.9s-0.9,0.4-0.9,0.9s0.4,0.9,0.9,0.9l0,0C70,75.2,70.4,74.8,70.4,74.3
			L70.4,74.3z"/>
	</g>
	<g>
		<path class="st1" d="M67,67.3c-0.6,0-1.1,0.5-1.1,1.1s0.5,1.1,1.1,1.1s1.1-0.5,1.1-1.1l0,0C68.1,67.8,67.6,67.3,67,67.3z"/>
	</g>
	<g>
		<path class="st1" d="M65.6,94.6l2-1.3c0.1-0.1,0.5-0.2,0.4-0.5s-0.5-0.2-0.5-0.2h-2.7c-0.5,0-0.5-0.5-0.5-0.5
			c-0.1-0.8-0.4-1.6-0.8-2.3c-0.2-0.3-0.3-0.4-0.5-0.3s-0.2,0.1-0.2,0.4c-0.1,0.7-0.2,1.3-0.4,2c-0.2,0.6-0.5,0.6-1,0.6s-2,0-2,0
			c-0.1,0-0.3,0-0.4,0c-0.2,0-0.3,0.1-0.4,0.3c0,0.1,0.1,0.3,0.2,0.3c0.3,0.2,1.9,1.1,2.3,1.4c0.3,0.2,0.4,0.5,0.3,0.8
			c0,0.1-0.9,2.1-1,2.4s0.1,0.5,0.1,0.5c0.3,0.2,0.6-0.2,0.6-0.2c0.7-0.5,1.4-1,2-1.5c0.2-0.2,0.5-0.2,0.6,0l0,0
			c0.7,0.6,1.4,1.2,2.1,1.7c0.1,0.1,0.4,0.1,0.5,0c0.2-0.1,0.1-0.5,0.1-0.5s-0.7-2-0.8-2.4S65.6,94.6,65.6,94.6z"/>
	</g>
	<g>
		<path class="st1" d="M47.2,65.8c0.1,0.4,0.4,0.6,0.8,0.6c0.4-0.1,0.6-0.4,0.6-0.8c-0.1-0.4-0.4-0.6-0.8-0.6
			C47.4,65.1,47.1,65.4,47.2,65.8z"/>
	</g>
	<g>
		<path class="st1" d="M48.8,61c0,0.4,0.4,0.6,0.7,0.6l0,0c0.4-0.1,0.6-0.4,0.6-0.8c-0.1-0.4-0.4-0.6-0.8-0.6
			C49,60.3,48.7,60.6,48.8,61L48.8,61z"/>
	</g>
	<g>
		<path class="st1" d="M53.2,66.2c-0.1-0.4-0.4-0.6-0.8-0.6c-0.4,0.1-0.6,0.4-0.6,0.8l0,0c0.1,0.4,0.4,0.6,0.8,0.6l0,0
			C53,66.9,53.3,66.6,53.2,66.2L53.2,66.2z"/>
	</g>
	<g>
		<path class="st1" d="M44.2,68c-0.4,0.1-0.7,0.4-0.6,0.8c0.1,0.4,0.4,0.7,0.8,0.6l0,0c0.4-0.1,0.7-0.4,0.6-0.8
			C44.9,68.2,44.6,67.9,44.2,68z"/>
	</g>
	<g>
		<path class="st1" d="M45.4,62.2c-0.1-0.4-0.4-0.6-0.8-0.6C44.2,61.7,44,62,44,62.4c0.1,0.4,0.4,0.6,0.8,0.6l0,0
			C45.2,62.9,45.5,62.6,45.4,62.2L45.4,62.2z"/>
	</g>
	<g>
		<path class="st1" d="M69,37l1.7-0.2c0.1,0.2,0.3,0.3,0.5,0.4l0.2,1.8c0,0.1,0.1,0.2,0.2,0.2l0,0c0.1,0,0.2-0.1,0.2-0.3l-0.2-1.7
			c0.2,0,0.5-0.2,0.6-0.3l1.4,0.9h0.1c0.1,0,0.2,0,0.2-0.1c0.1-0.1,0-0.3-0.1-0.3l-1.5-0.9c0-0.1,0.1-0.2,0.1-0.3
			c0-0.3-0.1-0.5-0.3-0.7l0.8-1c0.1-0.1,0.1-0.3,0-0.3c-0.1-0.1-0.3-0.1-0.4,0l-0.8,1c-0.1-0.1-0.3-0.1-0.4-0.1
			c-0.2,0-0.5,0.1-0.6,0.2l-1-1.3c-0.1-0.1-0.3-0.1-0.4,0s-0.1,0.3,0,0.3l1.3,1.4c-0.1,0.2-0.1,0.3-0.1,0.5v0.1L69,36.5
			c-0.1,0-0.2,0.1-0.2,0.2S68.9,37,69,37L69,37z"/>
	</g>
	<g>
		<path class="st1" d="M75,44.3c-0.1,0.2-0.2,0.4-0.2,0.7L73,45.3c-0.1,0-0.2,0.2-0.2,0.3s0.1,0.2,0.2,0.2l0,0l1.9-0.3
			c0.1,0.2,0.2,0.3,0.3,0.4h0.1l-0.7,1.4c-0.1,0.1,0,0.3,0.1,0.3h0.1c0.1,0,0.2-0.1,0.2-0.1l1-1.5c0.2,0,0.5-0.1,0.6-0.2l1.6,0.8
			c0.1,0.1,0.3,0,0.3-0.1l0,0c0.1-0.1,0-0.3-0.1-0.3l0,0l-1.6-0.8c0.1-0.2,0.1-0.5,0-0.7l1.5-0.8c0.1-0.1,0.2-0.2,0.1-0.3
			s-0.2-0.2-0.3-0.1l0,0l-1.5,0.8c-0.1-0.1-0.1-0.1-0.2-0.2c-0.2-0.1-0.5-0.2-0.7-0.1l-0.4-1.2c0-0.1-0.2-0.2-0.3-0.2
			c-0.1,0-0.2,0.2-0.2,0.3l0.4,1.2C75.2,44.1,75.1,44.2,75,44.3z"/>
	</g>
	<g>
		<path class="st1" d="M80.2,39.6l1.6-0.4c0.2,0.2,0.4,0.3,0.6,0.3l0.4,1.8c0,0.1,0.1,0.2,0.2,0.2h0.1c0.1,0,0.2-0.2,0.2-0.3
			l-0.4-1.7c0.2-0.1,0.4-0.2,0.6-0.4l1.6,0.6h0.1c0.1,0,0.2-0.1,0.2-0.3c0-0.1-0.1-0.2-0.2-0.2l-1.6-0.6c0-0.1,0-0.2,0-0.3
			c0-0.3-0.2-0.5-0.4-0.7l0.7-1.1c0.1-0.1,0-0.3-0.1-0.3c-0.1-0.1-0.3,0-0.3,0.1l-0.7,1.1c-0.1,0-0.3,0-0.4,0
			c-0.2,0-0.4,0.1-0.6,0.3l-1.4-1.2c-0.1-0.1-0.3-0.1-0.3,0c-0.1,0.1-0.1,0.3,0,0.4l0,0l1.5,1.2c0,0.2,0,0.3,0,0.5v0.1L80,39.1
			c-0.1,0-0.2,0.2-0.2,0.3C79.9,39.5,80,39.6,80.2,39.6L80.2,39.6z"/>
	</g>
	<g>
		<path class="st1" d="M36.6,62.3c0.6-0.7,0.8-1.7,0.6-2.6c0-0.2-0.2-0.3-0.3-0.3l0,0c-0.9,0-1.8,0.3-2.5,1c-0.4,0.5-0.8,1-1,1.6
			c-1.1-0.4-2.3-0.4-3.5,0c0-0.1,0-0.1,0-0.2c-0.2-0.7-1.7-0.8-3.4-0.2s-2.9,1.4-2.6,2.1s1.2,0.7,2.4,0.5l0,0h0.1
			c-0.4,0.4-0.7,0.8-1,1.2c-0.6,0.8-1,1.7-1.2,2.6c-0.2-0.1-0.4-0.1-0.6-0.1c-0.9,0-1.7,0-1.7,1.5s0.8,1.5,1.7,1.5
			c0.1,0,0.3,0,0.4-0.1c0.1,1.1,0.3,2.1,0.7,3.1c1.2,0.3,2.5,0.3,3.7,0.2c0,0.1,0,0.3,0,0.4c0.1,0.9,0.2,1.7,1.7,1.5s1.3-1,1.2-1.9
			c0-0.3-0.1-0.5-0.3-0.7c0.7-0.3,1.3-0.8,1.9-1.3c0.6-0.6,1.2-1.3,1.6-2v0.5c0,1.3,0.3,2.2,0.8,2.3s1.5-1.2,1.8-2.9
			s-0.1-3.2-0.8-3.3c-0.2,0-0.4,0-0.5,0.2l0,0c0.2-1.1,0-2.3-0.6-3.3C35.7,63.2,36.2,62.8,36.6,62.3z"/>
	</g>
	<g>
		<path class="st1" d="M84.2,98.4c-0.3-0.1-0.7-0.1-1.1-0.1h-0.5c-4.4-0.1-8.9,0.6-13.1,2.1c-8,2.8-16.2,4.8-24.6,6
			c-0.1-1-0.8-3.6,0.3-4.5c0.6-0.8,1.6-1,2.5-0.7c0.6,0.1,1,1.8,1.3,2.4s0.8,0.3,0.8-0.1c-0.1-0.5-0.2-1-0.4-1.5
			c-0.1-0.4,0-0.4,0.5-0.3s0.7,0.4,1.3,0.7s1.1,0.1,1.1-0.4s-0.6-0.6-1.2-0.8s-0.8-0.3-0.4-0.7c0.4-0.3,0.5-0.8,0.4-1.3
			c-0.2-0.4-0.7-0.5-1.3,0.3s-1.2,0.8-1.4,0.3s1-1.8,1.5-2.6c0.5-0.7,1.2-1.2,2.1-1.3c0.9-0.2,1.3-0.2,1.2-0.6s-1-0.3-1.4-0.3
			c-0.3,0-0.6-0.2-0.7-0.5c0-0.1,0-0.1,0-0.2c0-0.4,0.7-1,1.3-1.6s0.7-0.8,0.4-1.2s-1-0.3-1.6,0.2c-0.5,0.5-0.9,1-1.2,1.5
			c-0.2,0.3-0.5-0.2-0.9-0.7S48.3,91.8,48,92s0,0.6,0.4,1c0.5,0.6,0.7,1.3,0.7,2s-0.4,1.4-1.1,1.7c-0.3,0.1-0.2-1-0.8-1
			s-0.7,0.7-0.7,1.6s-1,1.4-1.5,0.9c-0.5-0.9-0.8-1.8-0.9-2.9c0-0.7,0.9-1.4,1.5-1.8s1.5-0.5,1-1.2s-2.1,0.2-2.7,0.8s-0.9,0.4-1,0.1
			c-0.1-0.8-0.1-1.5,0.1-2.3c0.3-1,1.2-1.7,2.2-1.8c0.9,0.1,1.7,0.4,2.4,1c0.3,0.2,0.9,0.3,1-0.2s-0.9-1-1.3-1.2s-0.6-0.2-0.5-0.6
			s1.3-0.8,1.8-1s1.2-0.5,0.8-1.1s-2,0.4-2.4,0.6s-0.3-0.8-0.4-1.1s0-1.1-0.7-1.1s-0.6,1.3-0.7,2s-0.5,0.6-1.5,1.3
			c-0.6,0.5-1.2,1.1-1.8,1.7c-0.3,0.2-0.4-0.5-0.5-1.5c-0.1-0.8,0.1-1.6,0.6-2.3c0.5-0.6,1.2-1.1,1.9-1.5c0.2-0.1,0.3-0.4,0.2-0.6
			s-0.4-0.3-0.6-0.2c-0.5,0.2-1,0.4-1.3,0.2s0.3-1.1,0.7-1.9s0.4-1.6-0.1-1.9s-1.3,0.5-1.5,1.1s-0.5,0.7-0.9,0.2s-0.7-0.8-0.9-0.6
			s-0.4,0.3,0.1,1c0.4,0.6,0.6,1.3,0.6,2c0,0.6-0.4,0.8-0.8,0.4s-1-0.6-1.1-0.2s0.3,0.7,0.8,0.9s0.5,1.1,0.5,1.5s-0.1,0.7-0.6,0.6
			c-0.7-0.4-1.2-1-1.5-1.7c0-0.4-0.1-0.9-0.1-1.3c-0.1-0.3-0.7-0.1-0.7,0.2c0,0.5,0,1,0,1.5c-0.1,0.2-0.7-0.1-1.5-0.4
			s-1.4-0.1-1.4,0.4s1.4,1.1,1.8,1.1s0.6,0.3,0.4,0.6s-0.9,0.8-1.1,1s0.1,0.9,0.6,0.5c0.5-0.5,1.1-0.8,1.8-0.9c0.5,0,1,0.2,1.3,0.7
			c0.1,0.3-0.3,0.4-0.8,0.6s-0.7,0.5-0.7,0.7s0.1,0.5,0.6,0.2c0.4-0.2,0.8-0.3,1.2-0.2c0.5-0.1,0.6,0.6,0.6,0.6
			c0.3,1,1.6,3.9,1.8,4.4s0,0.8-0.6,0.8s-1.3,0-1.2,0.6s1.2,0.6,2,0.6s0.8,0.8,0.9,1.9s-1.2,1.2-1.8,0.6c-1-0.9-1.9-1.9-2.6-3
			c-0.2-0.6-0.1-1.2,0.2-1.7c0.2-0.4,0.7-0.3,1-0.5s0.3-0.5,0.2-0.7c0,0,0,0,0-0.1c-0.2-0.3-0.8,0-1.1,0.2s-0.5,0.3-0.5,0
			s0.1-1.1,0.1-1.5s-0.2-0.7-0.7-0.5s-0.6,2.5-0.5,3.4s-0.4,0.9-0.8,0.8c-0.6-0.4-1.1-0.9-1.4-1.5c-0.2-0.4-0.2-0.6,0.4-1.3
			c0.2-0.3,0.4-0.6,0.5-1c0.1-0.3-0.4-0.4-0.6-0.1c-0.2,0.3-0.4,0.5-0.7,0.7C33.9,92.4,34,91.2,34,91s0.1-0.6-0.5-0.6
			s-0.3,1.2-0.3,1.5s-0.4,0.2-1,0.1s-0.8,0.6-0.2,0.6c0.5,0,0.9,0.1,1.3,0.4c0.2,0.4,0.3,1,0.1,1.4c-0.1,0.3-0.6-0.1-1.4-0.1
			s-1.6,0.1-1.7,0.6s0.6,1,1.4,1s1.6-0.1,1.7,0.1s-0.2,0.3-0.5,0.6s-0.4,0.6-0.2,0.9s0.7,0.2,1.1-0.2c0.3-0.4,0.8-0.6,1.3-0.5
			c0.7,0.1,1.4,0.4,2,0.9c0.4,0.3,0.1,0.8-0.3,0.9c-0.6,0.2-1.1,0.4-1.5,0.8s-1,0.4-1.4,0c-0.4-0.3-1-0.8-1.2-0.4s0.3,0.8,0.5,1
			s0.4,0.2,0.2,0.6c-0.3,0.4-0.7,0.8-1.1,1.1c-0.2,0.2-0.2,0.5-0.1,0.7c0.1,0.1,0.3,0.2,0.5,0.2c0.6-0.3,1.2-0.7,1.7-1.2
			c0.1-0.1,0.3-0.4,0.4,0c0,0.4,0,0.8,0,1.1c0,0.3-0.2,0.6,0.2,0.7c0.2,0.1,0.4,0,0.5-0.2c0.1-0.4,0.1-0.7,0.1-1.1
			c-0.1-0.6,0.2-1.2,0.6-1.7c0.5-0.6,1.8-0.3,2.5-0.3s0.8,0.6,0.8,1.1s-0.9,0.9-1.2,1.1s-1,0.3-0.7,0.8s0.4,0.3,0.7,0.3
			s1.1-0.9,1.7-1s1.1,0,1.5,1.2c0.4,1,0.7,2,0.8,3.1c-4.5,0.6-9.1,0.9-13.7,1c-1.1,0.1-1.9,0.2-2.5,0.3c0.3-0.4,0.6-0.8,1-1.1
			c0.4-0.4,0.3-0.9,0.1-1.8s0.3-1.5,0.5-2.2c0.1-0.7,0.1-1.4-0.2-2c0-0.1-0.1-0.2-0.2-0.3c-0.5,0.6-0.9,1.4-1.1,2.1
			c-0.2,0.9,0,1.4-0.3,2s-0.9,1-0.8,1.4c0,0.7,0,1.3-0.2,2l-0.7,0.1c0-0.5-0.1-1-0.3-1.4c-0.1-0.3-0.5-0.7,0-1.2s0.7-1.1,0.6-1.8
			c0-0.8,0.1-0.9,0.8-1.6s0.4-1.6,0.3-2.2s0.2-0.5,0.7-1s0-1.4,0.1-2.1s0.5-0.5,0.4-1.5c-0.1-0.7,0-1.4,0.2-2.1c0.2-1-1-2-1.3-2.2
			c0.1,0.1,0,0.4-0.3,1.3s0,1.2,0.2,1.8s-0.2,0.7-0.2,1.3s0.2,0.8-0.4,1.4s-0.7,1.1-0.7,2.3s-0.8,1.1-1.2,1.6s0.2,1.1,0.1,1.9
			c0,0.3-0.1,0.6-0.2,0.8c0.1-0.4,0.1-0.8,0-1.2c-0.4-0.9-0.4-1.3-0.3-1.5c0.2-0.2,0.3-0.4,0.6-0.6c-0.1-0.1-0.1-0.1-0.1-0.2
			c-0.2-0.4,0-0.9,0.5-1.9s0.2-1-0.1-1.6s-0.3-0.8,0.2-1.2c0.4-0.4,0.5-0.9,0.4-1.4c-0.2-0.5-0.2-0.9-0.1-1.4
			c0.2-0.7,0.6-0.7,0.4-1.3s-0.4-1.1-0.4-1.1c-0.2-0.6,0.5-1,0-2s-0.1-1.2-0.3-2.5c-0.1-0.7-0.8-1.2-1.5-1.1l0,0
			c-0.2,0-0.5,0.3-0.4,1.2s0.7,1.1,0.5,2.1s0.3,1.3,0.5,1.9S22,90.5,22,91s0.4,1-0.2,1.6s-0.7,0.8-0.2,1.8c0.3,0.7,0,0.9-0.5,1.8
			s-0.2,1.2-0.1,2.3c0.1,0.7,0.2,1.3,0.1,2s-0.5,0.8-0.5,2c0.2,0.8,0.4,1.6,0.4,2.4c-0.1,0.5-1.6,1.6-1.5,2.3c0,0.3,0,0.6,0,1
			l-1.9-0.1c-0.1-1-0.3-2.4-0.6-3.9c-0.4-2,0-4.2,0.6-6.7l0,0v-0.1c0.2-1,0.4-2.1,0.6-3.3c0.8-4,1-8,0.7-12.1
			c-0.3-1.7-0.6-3.4-1.1-5.1c-0.4-1.6-0.8-3.1-1-4.4c-0.4-2.8-0.8-4.8-0.8-4.8c0-0.2-0.2-0.3-0.4-0.3s-0.4,0.2-0.3,0.4l0,0
			c0,0,0.4,2.1,0.8,4.8c0.2,1.4,0.6,2.9,1,4.5s0.9,3.4,1.1,5c0.3,3.1,0.2,6.2-0.2,9.3c0-0.9,0-1.8-0.1-2.8c-0.2-2.6-0.7-5.2-1.6-7.7
			c-0.1-0.2-0.3-0.3-0.5-0.2c-0.2,0.1-0.3,0.3-0.2,0.5c0.8,2.4,1.3,4.9,1.5,7.5c0.2,2.8,0.2,5.7-0.1,8.5v0.1c-0.5,2.6-1,4.9-0.6,7
			c0.3,1.4,0.4,2.7,0.5,3.7h-0.6c-0.5-0.8-0.9-1.7-1.1-2.6c-0.2-0.5-0.4-1.1-0.7-1.9c-0.9-2.5-0.8-7.2-0.6-10.5c0.1-1,0.2-2,0.3-3.1
			c0.5-3,0.5-6.1,0-9.1c-0.9-4.4-0.7-5.6-0.7-5.6c0-0.2-0.1-0.4-0.3-0.4s-0.4,0.1-0.4,0.3c0,0.1-0.2,1.3,0.7,5.9
			c0.5,2.9,0.5,5.9,0,8.9C13.4,91,13.3,92,13.2,93c-0.2,3.7-0.3,8.2,0.6,10.8c0.3,0.8,0.5,1.4,0.6,1.9c0.3,0.8,0.6,1.6,1,2.4H15
			c-3.9,0.1-4.7,2.2-4.8,3.4c0,0.1,0,0.1,0,0.2v0.2h81.2v-7.3C91.4,100.2,91.8,99.6,84.2,98.4z"/>
	</g>
</g>
</svg>
